<svg viewBox="0 0 512 512" xml:space="preserve" xmlns="http://www.w3.org/2000/svg" fill-rule="evenodd" clip-rule="evenodd" stroke-linejoin="round" stroke-miterlimit="2"><path d="M256 .003C111.775.003 0 105.648 0 248.328c0 74.637 30.596 139.126 80.406 183.682 4.172 3.76 6.696 8.962 6.902 14.577l1.391 45.534c.463 14.525 15.452 23.951 28.742 18.131l50.788-22.407a20.431 20.431 0 0 1 13.649-1.03c23.334 6.439 48.213 9.839 74.122 9.839 144.225 0 256-105.646 256-248.326S400.225.003 256 .003ZM102.297 320.956 177.5 201.661c11.95-18.955 37.602-23.694 55.527-10.25l59.802 44.864a15.377 15.377 0 0 0 18.492-.051l80.766-61.296c10.765-8.19 24.879 4.739 17.616 16.174l-75.152 119.243c-11.95 18.956-37.601 23.694-55.526 10.251l-59.802-44.865a15.375 15.375 0 0 0-18.492.052l-80.818 61.347c-10.765 8.19-24.879-4.739-17.616-16.174Z" fill="#ffffff" class="fill-000000"></path></svg>